<svg id="Layer_1" data-name="Layer 1" xmlns="http://www.w3.org/2000/svg" viewBox="0 0 600 600"><defs><style>.cls-1{fill:#9c8ffd;}.cls-2{fill:#5954ba;}</style></defs><title>mirrorArtboard 1</title><path class="cls-1" d="M484.4,592a72.63,72.63,0,0,1-14.19-1.4L321.6,561.05a72.55,72.55,0,0,1-58.27-71V271.23a72.67,72.67,0,0,1,57.6-70.84h0l148.6-31a72.34,72.34,0,0,1,87.13,70.83V519.59A72.39,72.39,0,0,1,484.4,592ZM329.09,239.55a32.51,32.51,0,0,0-25.76,31.68V490.07a32.43,32.43,0,0,0,26.06,31.73L478,551.32a32.35,32.35,0,0,0,38-25.42,32.71,32.71,0,0,0,.62-6.32V240.23a32.36,32.36,0,0,0-39-31.68Z"/><path class="cls-2" d="M334.19,484.83h0a57.2,57.2,0,0,0,45.44-56V258.09a11.58,11.58,0,0,0-13.93-11.33l-19.93,4.15a29.25,29.25,0,0,0-23.28,28.64V475.33A9.71,9.71,0,0,0,332.2,485,9.54,9.54,0,0,0,334.19,484.83Z"/><path class="cls-2" d="M246.1,261.79a80.86,80.86,0,0,1,64.35-79.16l54.14-11.29a15.19,15.19,0,0,0,12.13-14.93V106.67a53.4,53.4,0,0,0-42.93-52.36L107.19,9.05A53.35,53.35,0,0,0,43.34,61.4V470.5a53.42,53.42,0,0,0,64.4,52.27l119.92-25.2a23.26,23.26,0,0,0,18.48-22.77Z"/></svg>